# xmcd
#
# Track frame offsets:
#	150
#	15676
#	34808
#	51521
#	72691
#	91592
#	112694
#	128637
#	141919
#	160837
#	182453
#	204017
#	232710
#	252289
#	272034
#	293149
#
# Disc length: 4149 seconds
#
# Revision: 1
# Processed by: cddbd v1.5.2PL0 Copyright (c) Steve Scherf et al.
# Submitted via: audiograbber 1.83.01
#
DISCID=d3103310
DTITLE=The Bluesman - So Beautiful
DYEAR=2015
DGENRE=Blues
TTITLE0=It hurts me too
TTITLE1=Honky Tonk Woman
TTITLE2=Can't Stand The Rain
TTITLE3=Superstition
TTITLE4=Susie Q
TTITLE5=Use Me
TTITLE6=The Dock Of The Bay
TTITLE7=The Letter
TTITLE8=Wish You Were Here
TTITLE9=Undercover Agent
TTITLE10=Strange Light
TTITLE11=So Beautiful
TTITLE12=When I Come Home To You
TTITLE13=Baby Please
TTITLE14=Mr. Bojangles
TTITLE15=Sexbomb
EXTD=www.thebluesman.de
EXTT0=
EXTT1=
EXTT2=
EXTT3=
EXTT4=
EXTT5=
EXTT6=
EXTT7=
EXTT8=
EXTT9=
EXTT10=
EXTT11=
EXTT12=
EXTT13=
EXTT14=
EXTT15=
PLAYORDER=
